# xmcd
#
# Track frame offsets: 
#        150
#        18683
#        34663
#        53238
#        71644
#        90911
#        106354
#        123920
#        142027
#        157332
#        175002
#        190861
#        210315
#
# Disc length: 3083 seconds
#
# Revision: 0
# Processed by: cddbd v1.5.2PL0 Copyright (c) Steve Scherf et al.
# Submitted via: ExactAudioCopyFreeDBPlugin 1.0
#
DISCID=b10c090d
DTITLE=Roy Roberts, Johnny Rawls, Barbara Carr - Three Pair
DYEAR=2013
DGENRE=Blues
TTITLE0=Roy Roberts and Johnny Rawls - Don't Let Our Love Slip Away
TTITLE1=Barbara Carr and Roy Roberts - How Long
TTITLE2=Johnny Rawls and Roy Roberts - Shaggin' Down In Carolina
TTITLE3=Barbara Carr and Roy Roberts - It's Only You
TTITLE4=Roy Roberts and Johnny Rawls - Country Boy
TTITLE5=Barbara Carr - Tonight Your Love Belongs To Me
TTITLE6=Johnny Rawls - Reach Out
TTITLE7=Roy Roberts - You are The One For Me
TTITLE8=Roy Roberts and Barbara Carr - Don't Let Our Love Slip Away 2
TTITLE9=Roy Roberts and Johnny Rawls - Can't See You
TTITLE10=Roy Roberts and Barbara Carr - Shaggin' Down In Carolina 2
TTITLE11=Johnny Rawls and Roy Roberts - What's Been Going On
TTITLE12=Johnny Rawls and Roy Roberts - Let's Go To The Beach
EXTD=
EXTT0=
EXTT1=
EXTT2=
EXTT3=
EXTT4=
EXTT5=
EXTT6=
EXTT7=
EXTT8=
EXTT9=
EXTT10=
EXTT11=
EXTT12=
PLAYORDER=
